<svg width="407" height="347" viewBox="0 0 407 347" fill="none" xmlns="http://www.w3.org/2000/svg">
<path d="M152.854 33.6381C165.353 11.9901 193.034 4.5729 214.682 17.0714C236.33 29.5699 243.747 57.2511 231.248 78.8991L95.4656 314.082C82.9671 335.73 55.286 343.147 33.638 330.649C11.9901 318.15 4.57291 290.469 17.0714 268.821L152.854 33.6381Z" fill="white" fill-opacity="0.85"/>
<path d="M99.7957 316.582L235.578 81.3991C249.458 57.3596 241.221 26.6205 217.182 12.7413C193.142 -1.13794 162.403 7.09859 148.524 31.1381L12.7412 266.321C-1.13792 290.361 7.09858 321.1 31.138 334.979C55.1774 348.858 85.9165 340.622 99.7957 316.582Z" stroke="white" stroke-opacity="0.85" stroke-width="10"/>
<path d="M236.099 183.425C223.601 161.777 231.018 134.096 252.666 121.597C274.314 109.099 301.995 116.516 314.494 138.164L389.929 268.821C402.427 290.469 395.01 318.15 373.362 330.649C351.714 343.147 324.033 335.73 311.534 314.082L236.099 183.425Z" fill="white" fill-opacity="0.55"/>
<path d="M394.259 266.321L318.824 135.664C304.945 111.624 274.206 103.388 250.166 117.267C226.127 131.146 217.89 161.885 231.769 185.925L307.204 316.582C321.083 340.622 351.822 348.858 375.862 334.979C399.901 321.1 408.138 290.361 394.259 266.321Z" stroke="white" stroke-opacity="0.55" stroke-width="10"/>
</svg>
