<svg width="407" height="347" viewBox="0 0 407 347" fill="none" xmlns="http://www.w3.org/2000/svg">
<path d="M99.7957 316.582L235.578 81.3991C249.458 57.3596 241.221 26.6205 217.182 12.7413C193.142 -1.13794 162.403 7.0986 148.524 31.1381L12.7412 266.321C-1.13792 290.361 7.09858 321.1 31.138 334.979C55.1774 348.858 85.9165 340.622 99.7957 316.582ZM394.259 266.321L318.824 135.664C304.945 111.624 274.206 103.388 250.166 117.267C226.127 131.146 217.89 161.885 231.769 185.925L307.204 316.582C321.083 340.622 351.823 348.858 375.862 334.979C399.901 321.1 408.138 290.361 394.259 266.321Z" fill="url(#paint0_linear_5_6)" stroke="white" stroke-width="10"/>
<defs>
<linearGradient id="paint0_linear_5_6" x1="217.995" y1="263.921" x2="239.721" y2="102.792" gradientUnits="userSpaceOnUse">
<stop stop-color="#8F5EF5"/>
<stop offset="1" stop-color="#3760F3" stop-opacity="0.81"/>
</linearGradient>
</defs>
</svg>
